<svg xmlns="http://www.w3.org/2000/svg" width="24" height="28" viewBox="0 0 24 28" fill="none" class="svg replaced-svg">
<g clip-path="url(#clip0_111_8417)">
<path d="M15.9223 12.9422C15.9223 13.7657 15.3051 14.4407 14.5234 14.4407C13.7554 14.4407 13.1246 13.7657 13.1246 12.9422C13.1246 12.1187 13.7417 11.4437 14.5234 11.4437C15.3051 11.4437 15.9223 12.1187 15.9223 12.9422ZM9.51771 11.4437C8.736 11.4437 8.11886 12.1187 8.11886 12.9422C8.11886 13.7657 8.74971 14.4407 9.51771 14.4407C10.2994 14.4407 10.9166 13.7657 10.9166 12.9422C10.9303 12.1187 10.2994 11.4437 9.51771 11.4437ZM24 2.89819V27.1172C20.545 24.1116 21.6499 25.1065 17.6366 21.4337L18.3634 23.9312H2.81143C1.26171 23.9312 0 22.6892 0 21.1502V2.89819C0 1.35919 1.26171 0.117188 2.81143 0.117188H21.1886C22.7383 0.117188 24 1.35919 24 2.89819ZM20.0914 15.6962C20.0914 11.3492 18.1166 7.82569 18.1166 7.82569C16.1417 6.36769 14.2629 6.40819 14.2629 6.40819L14.0709 6.62419C16.4023 7.32619 17.4857 8.33869 17.4857 8.33869C14.228 6.5811 10.4012 6.58079 7.24114 7.94719C6.73371 8.17669 6.432 8.33869 6.432 8.33869C6.432 8.33869 7.57029 7.27219 10.0389 6.57019L9.90171 6.40819C9.90171 6.40819 8.02286 6.36769 6.048 7.82569C6.048 7.82569 4.07314 11.3492 4.07314 15.6962C4.07314 15.6962 5.22514 17.6537 8.256 17.7482C8.256 17.7482 8.76343 17.1407 9.17486 16.6277C7.43314 16.1147 6.77486 15.0347 6.77486 15.0347C6.97661 15.1737 7.30929 15.3539 7.33714 15.3722C9.65197 16.6483 12.9401 17.0663 15.8949 15.8447C16.3749 15.6692 16.9097 15.4127 17.472 15.0482C17.472 15.0482 16.7863 16.1552 14.9897 16.6547C15.4011 17.1677 15.8949 17.7482 15.8949 17.7482C18.9257 17.6537 20.0914 15.6962 20.0914 15.6962Z" fill="#495AB6"></path>
</g>
<defs>
<clipPath id="clip0_111_8417">
<rect width="24" height="27" fill="white" transform="translate(0 0.117188)"></rect>
</clipPath>
</defs>
</svg>