<svg xmlns="http://www.w3.org/2000/svg" width="27" height="28" viewBox="0 0 27 28" fill="none" class="svg replaced-svg">
<path d="M24.2246 8.11742C24.2417 8.35725 24.2417 8.59714 24.2417 8.83698C24.2417 16.1523 18.6739 24.5812 8.49746 24.5812C5.36229 24.5812 2.44988 23.6732 0 22.0971C0.445447 22.1485 0.873703 22.1656 1.33629 22.1656C3.92317 22.1656 6.30455 21.2919 8.20621 19.8015C5.77346 19.75 3.73475 18.1568 3.03233 15.9639C3.375 16.0152 3.71762 16.0495 4.07742 16.0495C4.57423 16.0495 5.0711 15.981 5.53363 15.8611C2.99811 15.3471 1.0964 13.12 1.0964 10.4302V10.3617C1.83305 10.7729 2.68972 11.0299 3.59764 11.0641C2.10716 10.0704 1.13068 8.37439 1.13068 6.4556C1.13068 5.4277 1.40474 4.48544 1.88446 3.6631C4.60846 7.02097 8.70302 9.21382 13.2943 9.45371C13.2087 9.04254 13.1573 8.61428 13.1573 8.18597C13.1573 5.13645 15.6243 2.65234 18.6909 2.65234C20.2842 2.65234 21.7232 3.32049 22.7341 4.3998C23.9846 4.15997 25.1839 3.69738 26.2461 3.06351C25.8349 4.34844 24.9612 5.42775 23.8134 6.11298C24.927 5.99312 26.0063 5.68468 26.9999 5.25642C26.2462 6.35282 25.3039 7.3293 24.2246 8.11742Z" fill="#495AB6"></path>
</svg>