<svg width="1919" height="49" viewBox="0 0 1919 49" fill="none" xmlns="http://www.w3.org/2000/svg">
            <path d="M0 6.00004V1.00004C0 1.00004 288.201 41.7755 474 41.9952C565.736 42.1037 631.106 32.384 698.753 22.3257C770.854 11.6052 845.542 0.5 957.5 0.5C1056.94 0.5 1140.68 11.1497 1224.43 21.8014C1323.44 34.3937 1422.47 46.9888 1547.5 41.9952C1693.73 36.1549 1920 1 1920 1V6C1920 6 1693.73 41.1549 1547.5 46.9952C1422.47 51.9888 1323.44 39.3937 1224.43 26.8014C1140.68 16.1497 1056.94 5.5 957.5 5.5C845.542 5.5 770.854 16.6052 698.753 27.3257C631.106 37.384 565.736 47.1037 474 46.9952C288.201 46.7755 0 6.00004 0 6.00004Z" fill="url(#paint0_linear_180_1733)"></path>
            <defs>
                <linearGradient id="paint0_linear_180_1733" x1="-1.56069e-07" y1="17.2904" x2="1914.32" y2="-86.9586" gradientUnits="userSpaceOnUse">
                    <stop stop-color="#240E63"></stop>
                    <stop offset="0.505036" stop-color="#FFC02F"></stop>
                    <stop offset="1" stop-color="#240E63"></stop>
                </linearGradient>
            </defs>
        </svg>