<svg xmlns="http://www.w3.org/2000/svg" width="24" height="28" viewBox="0 0 24 28" fill="none" class="svg replaced-svg">
<g clip-path="url(#clip0_111_8421)">
<path d="M12.0055 7.55415C8.59832 7.55415 5.85011 10.2594 5.85011 13.6133C5.85011 16.9672 8.59832 19.6725 12.0055 19.6725C15.4126 19.6725 18.1608 16.9672 18.1608 13.6133C18.1608 10.2594 15.4126 7.55415 12.0055 7.55415ZM12.0055 17.5526C9.80368 17.5526 8.00368 15.786 8.00368 13.6133C8.00368 11.4407 9.79832 9.67407 12.0055 9.67407C14.2126 9.67407 16.0073 11.4407 16.0073 13.6133C16.0073 15.786 14.2073 17.5526 12.0055 17.5526ZM19.8483 7.3063C19.8483 8.09204 19.2055 8.71958 18.4126 8.71958C17.6144 8.71958 16.9769 8.08677 16.9769 7.3063C16.9769 6.52583 17.6198 5.89302 18.4126 5.89302C19.2055 5.89302 19.8483 6.52583 19.8483 7.3063ZM23.9251 8.74067C23.834 6.84751 23.3948 5.17056 21.9858 3.78892C20.5823 2.40728 18.8787 1.97485 16.9555 1.87993C14.9733 1.76919 9.03225 1.76919 7.05011 1.87993C5.13225 1.96958 3.42868 2.402 2.01975 3.78364C0.610826 5.16528 0.176897 6.84224 0.0804687 8.7354C-0.0320312 10.6866 -0.0320312 16.5348 0.0804687 18.486C0.17154 20.3791 0.610826 22.0561 2.01975 23.4377C3.42868 24.8194 5.1269 25.2518 7.05011 25.3467C9.03225 25.4575 14.9733 25.4575 16.9555 25.3467C18.8787 25.2571 20.5823 24.8247 21.9858 23.4377C23.3894 22.0561 23.8287 20.3791 23.9251 18.486C24.0376 16.5348 24.0376 10.6918 23.9251 8.74067ZM21.3644 20.5795C20.9465 21.6131 20.1376 22.4094 19.0823 22.826C17.5019 23.443 13.7519 23.3006 12.0055 23.3006C10.259 23.3006 6.50368 23.4377 4.92868 22.826C3.87868 22.4147 3.06975 21.6184 2.64654 20.5795C2.01975 19.0239 2.1644 15.3325 2.1644 13.6133C2.1644 11.8942 2.02511 8.19751 2.64654 6.64712C3.0644 5.61352 3.87333 4.81724 4.92868 4.40063C6.50904 3.78364 10.259 3.92603 12.0055 3.92603C13.7519 3.92603 17.5073 3.78892 19.0823 4.40063C20.1323 4.81196 20.9412 5.60825 21.3644 6.64712C21.9912 8.20278 21.8465 11.8942 21.8465 13.6133C21.8465 15.3325 21.9912 19.0291 21.3644 20.5795Z" fill="#495AB6"></path>
</g>
<defs>
<clipPath id="clip0_111_8421">
<rect width="24" height="27" fill="white" transform="translate(0 0.117188)"></rect>
</clipPath>
</defs>
</svg>