<svg width="1920" height="216" viewBox="0 0 1920 216" fill="none" xmlns="http://www.w3.org/2000/svg">
            <path d="M-72.5 129.5C-119.375 95.8586 -461 0.5 -461 0.5L-459.57 4.90039C-435.591 11.622 -117.603 101.13 -72.5 133.5C-8.5415 179.402 39.35 145.29 96.0353 104.915C157.204 61.3469 228.613 10.485 341.5 44.9998C406.356 64.8291 451.5 109.282 490.848 148.028C505.992 162.94 520.278 177.008 534.499 188.5C616.352 254.649 712.841 184.233 799.825 120.753C851.835 82.797 900.446 47.3211 940.499 44.9998C993.75 41.9136 1034.34 51.3619 1075.47 60.9342C1113.41 69.7646 1151.8 78.7005 1201 77.9998C1249.85 77.304 1289.68 68.9024 1328.46 60.7206C1362.85 53.4645 1396.42 46.3813 1434.75 44.9998C1498.23 42.7116 1547.36 70.0687 1594.89 96.5332C1650.36 127.419 1703.64 157.089 1775 137C1842.43 118.015 1929 44.9998 1929 44.9998V40.9998C1929 40.9998 1842.43 114.015 1775 133C1703.64 153.089 1650.36 123.419 1594.89 92.5332C1547.36 66.0687 1498.23 38.7116 1434.75 40.9998C1396.42 42.3813 1362.85 49.4645 1328.46 56.7206C1289.68 64.9024 1249.85 73.304 1201 73.9998C1151.8 74.7005 1113.41 65.7646 1075.47 56.9342C1034.34 47.3619 993.75 37.9136 940.499 40.9998C900.446 43.3211 851.835 78.797 799.825 116.753C712.841 180.233 616.352 250.649 534.499 184.5C520.278 173.008 505.992 158.94 490.848 144.028C451.5 105.282 406.356 60.8291 341.5 40.9998C228.613 6.48497 157.204 57.3469 96.0353 100.915C39.35 141.29 -8.5415 175.402 -72.5 129.5Z" fill="url(#paint0_linear_167_8998)"></path>
            <defs>
                <linearGradient id="paint0_linear_167_8998" x1="113.5" y1="215.102" x2="1864.5" y2="215.102" gradientUnits="userSpaceOnUse">
                    <stop stop-color="#170E61" stop-opacity="0.06"></stop>
                    <stop offset="0.512892" stop-color="#FFC02F"></stop>
                    <stop offset="1" stop-color="#170F62" stop-opacity="0"></stop>
                </linearGradient>
            </defs>
        </svg>