<?xml version="1.0" encoding="UTF-8"?>
<svg xmlns="http://www.w3.org/2000/svg" xmlns:xlink="http://www.w3.org/1999/xlink" width="27" height="28" viewBox="0 0 27 28">
<g id="surface44483577">
<path style=" stroke:none;fill-rule:nonzero;fill:rgb(28.627452%,35.294119%,71.372551%);fill-opacity:1;" d="M 15 14 C 21.066406 14 26 18.933594 26 25 C 26 31.066406 21.066406 36 15 36 C 8.933594 36 4 31.066406 4 25 C 4 18.933594 8.933594 14 15 14 M 15 12 C 7.820312 12 2 17.820312 2 25 C 2 32.179688 7.820312 38 15 38 C 22.179688 38 28 32.179688 28 25 C 28 17.820312 22.179688 12 15 12 Z M 35.5 15 C 37.625 15 40 19.277344 40 25 C 40 30.722656 37.625 35 35.5 35 C 33.375 35 31 30.722656 31 25 C 31 19.277344 33.375 15 35.5 15 M 35.5 13 C 31.910156 13 29 18.371094 29 25 C 29 31.628906 31.910156 37 35.5 37 C 39.089844 37 42 31.628906 42 25 C 42 18.371094 39.089844 13 35.5 13 Z M 46.378906 15.667969 L 46.382812 15.667969 L 46.378906 15.667969 M 45.5 18.578125 C 45.78125 20.15625 46 22.328125 46 25 C 46 27.671875 45.78125 29.84375 45.5 31.421875 C 45.21875 29.84375 45 27.671875 45 25 C 45 22.328125 45.21875 20.15625 45.5 18.578125 M 45.5 14 C 44.117188 14 43 18.925781 43 25 C 43 31.074219 44.117188 36 45.5 36 C 46.882812 36 48 31.074219 48 25 C 48 18.925781 46.882812 14 45.5 14 Z M 45.5 14 "/>
</g>
</svg>
